<svg xmlns="http://www.w3.org/2000/svg" version="1.1" xmlns:xlink="http://www.w3.org/1999/xlink" xmlns:svgjs="http://svgjs.com/svgjs" width="1440" height="560" preserveAspectRatio="none" viewBox="0 0 1440 560">
    <g mask="url(&quot;#SvgjsMask1193&quot;)" fill="none">
        <path d="M -15.02822917659148,227 C 80.97,258 272.97,395.6 464.9717708234085,382 C 656.97,368.4 752.97,172.6 944.9717708234085,159 C 1136.97,145.4 1232.97,313.8 1424.9717708234084,314 C 1616.97,314.2 1901.97,145.2 1904.9717708234084,160 C 1907.98,174.8 1532.99,342.4 1440,388" stroke="rgba(207, 207, 207, 1)" stroke-width="2"></path>
        <path d="M -395.05802797889373,320 C -299.06,290.4 -107.06,169.8 84.9419720211063,172 C 276.94,174.2 372.94,323.6 564.9419720211063,331 C 756.94,338.4 852.94,196.4 1044.9419720211063,209 C 1236.94,221.6 1445.93,384.6 1524.9419720211063,394 C 1603.95,403.4 1456.99,283.6 1440,256" stroke="rgba(207, 207, 207, 1)" stroke-width="2"></path>
        <path d="M -766.9815551842518,204 C -670.98,225 -478.98,311.2 -286.98155518425176,309 C -94.98,306.8 1.02,191.4 193.01844481574824,193 C 385.02,194.6 481.02,312.6 673.0184448157482,317 C 865.02,321.4 999.62,204.8 1153.0184448157484,215 C 1306.41,225.2 1382.6,337.4 1440,368" stroke="rgba(207, 207, 207, 1)" stroke-width="2"></path>
        <path d="M -427.9800520740505,355 C -331.98,338 -139.98,262 52.01994792594949,270 C 244.02,278 340.02,405.4 532.0199479259495,395 C 724.02,384.6 820.02,239 1012.0199479259495,218 C 1204.02,197 1406.42,281.2 1492.0199479259495,290 C 1577.62,298.8 1450.4,267.6 1440,262" stroke="rgba(207, 207, 207, 1)" stroke-width="2"></path>
    </g>
</svg>