<svg width="18" height="19" viewBox="0 0 18 19" fill="none" xmlns="http://www.w3.org/2000/svg">
<path fill-rule="evenodd" clip-rule="evenodd" d="M16.2037 12.75L13.6637 12.46C13.0537 12.39 12.4537 12.6 12.0237 13.03L10.1837 14.87C7.35367 13.43 5.03367 11.12 3.59367 8.28L5.44367 6.43C5.87367 6 6.08367 5.4 6.01367 4.79L5.72367 2.27C5.60367 1.26 4.75367 0.5 3.73367 0.5H2.00367C0.873674 0.5 -0.0663265 1.44 0.00367348 2.57C0.533673 11.11 7.36367 17.93 15.8937 18.46C17.0237 18.53 17.9637 17.59 17.9637 16.46V14.73C17.9737 13.72 17.2137 12.87 16.2037 12.75Z" fill="#FF6633"/>
</svg>
