<svg width="16" height="5" viewBox="0 0 16 5" fill="none" xmlns="http://www.w3.org/2000/svg">
<path fill-rule="evenodd" clip-rule="evenodd" d="M2.40011 0.633331C1.37345 0.633331 0.533447 1.47333 0.533447 2.5C0.533447 3.52666 1.37345 4.36666 2.40011 4.36666C3.42678 4.36666 4.26678 3.52666 4.26678 2.5C4.26678 1.47333 3.42678 0.633331 2.40011 0.633331ZM13.6001 0.633331C12.5734 0.633331 11.7334 1.47333 11.7334 2.5C11.7334 3.52666 12.5734 4.36666 13.6001 4.36666C14.6268 4.36666 15.4668 3.52666 15.4668 2.5C15.4668 1.47333 14.6268 0.633331 13.6001 0.633331ZM8.00011 0.633331C6.97345 0.633331 6.13345 1.47333 6.13345 2.5C6.13345 3.52666 6.97345 4.36666 8.00011 4.36666C9.02678 4.36666 9.86678 3.52666 9.86678 2.5C9.86678 1.47333 9.02678 0.633331 8.00011 0.633331Z" fill="#C3CAD9"/>
</svg>
