<svg width="20" height="19" viewBox="0 0 20 19" fill="none" xmlns="http://www.w3.org/2000/svg">
<path d="M18.1 11.29H1.89999C1.26999 11.29 0.75 11.8 0.75 12.44V15.28C0.75 15.91 1.25999 16.4301 1.89999 16.4301H18.1C18.73 16.4301 19.25 15.92 19.25 15.28V12.44C19.25 11.8 18.74 11.29 18.1 11.29Z" stroke="#ADB8CC" stroke-width="1.5" stroke-linecap="round" stroke-linejoin="round"/>
<path d="M3.83 16.42V17.45" stroke="#ADB8CC" stroke-width="1.5" stroke-linecap="round" stroke-linejoin="round"/>
<path d="M16.17 16.42V17.45" stroke="#ADB8CC" stroke-width="1.5" stroke-linecap="round" stroke-linejoin="round"/>
<path d="M16.19 14.8801C15.62 14.8801 15.16 14.4201 15.16 13.8501C15.16 13.2801 15.61 12.8201 16.18 12.8201H16.19C16.76 12.8201 17.22 13.2801 17.22 13.8501C17.22 14.4201 16.75 14.8801 16.19 14.8801Z" fill="#ADB8CC"/>
<path d="M13.1 14.8801C12.53 14.8801 12.07 14.4201 12.07 13.8501C12.07 13.2801 12.52 12.8201 13.09 12.8201H13.1C13.67 12.8201 14.13 13.2801 14.13 13.8501C14.13 14.4201 13.67 14.8801 13.1 14.8801Z" fill="#ADB8CC"/>
<path d="M3.83 11.2901L1.78 3.06006" stroke="#ADB8CC" stroke-width="1.5" stroke-linecap="round" stroke-linejoin="round"/>
<path d="M16.17 11.2901L18.22 3.06006" stroke="#ADB8CC" stroke-width="1.5" stroke-linecap="round" stroke-linejoin="round"/>
<path d="M6.86 1.93002C7.81 1.34002 8.92001 1 10.1 1C11.21 1 12.25 1.29002 13.14 1.80002" stroke="#ADB8CC" stroke-width="1.5" stroke-linecap="round" stroke-linejoin="round"/>
<path d="M8.47 4.54999C8.94 4.24999 9.5 4.08997 10.09 4.08997C10.65 4.08997 11.17 4.22999 11.61 4.48999" stroke="#ADB8CC" stroke-width="1.5" stroke-linecap="round" stroke-linejoin="round"/>
<path d="M10.12 8.20001C9.55 8.20001 9.09 7.74001 9.09 7.17001C9.09 6.60001 9.54 6.14001 10.11 6.14001H10.12C10.69 6.14001 11.15 6.60001 11.15 7.17001C11.15 7.74001 10.69 8.20001 10.12 8.20001Z" fill="#ADB8CC"/>
</svg>
