<svg width="22" height="22" viewBox="0 0 22 22" fill="none" xmlns="http://www.w3.org/2000/svg">
<path fill-rule="evenodd" clip-rule="evenodd" d="M11.0888 2.39628C9.07878 0.386282 6.06878 -0.0237175 3.64878 1.15628L7.27878 4.78628C7.66878 5.17628 7.66878 5.80628 7.27878 6.19628L5.68878 7.78628C5.29878 8.18628 4.66878 8.18628 4.27878 7.78628L0.648783 4.15628C-0.521217 6.58628 -0.111217 9.57628 1.89878 11.5863C3.75878 13.4463 6.47878 13.9363 8.78878 13.0663L16.7488 21.0263C17.7788 22.0563 19.4388 22.0563 20.4588 21.0263C21.4888 19.9963 21.4888 18.3363 20.4588 17.3163L12.5388 9.38628C13.4588 7.04628 12.9788 4.28628 11.0888 2.39628Z" fill="#C3CAD9"/>
</svg>
