<svg width="20" height="21" viewBox="0 0 20 21" fill="none" xmlns="http://www.w3.org/2000/svg">
<path fill-rule="evenodd" clip-rule="evenodd" d="M9.9971 0.5C4.48427 0.5 0 4.98427 0 10.4971C0 12.6834 0.705276 14.711 1.90418 16.3568L0.658169 20.0711L4.50185 18.843C6.08275 19.8891 7.96935 20.4944 10.0029 20.4944C15.5157 20.4944 20 16.0099 20 10.4973C20 4.98444 15.5157 0.500166 10.0029 0.500166H9.9971V0.5ZM7.20535 5.57808C7.01145 5.11382 6.86449 5.09623 6.57074 5.08429C6.45919 5.07711 6.34746 5.07323 6.23568 5.07268C5.85352 5.07268 5.45394 5.18431 5.21293 5.43112C4.91918 5.73085 4.19035 6.43015 4.19035 7.86426C4.19035 9.29836 5.23649 10.6854 5.37748 10.8794C5.52444 11.0732 7.417 14.0588 10.3555 15.2756C12.6535 16.2277 13.3354 16.1395 13.8584 16.0278C14.6224 15.8633 15.5804 15.2988 15.8214 14.6173C16.0624 13.9354 16.0624 13.3535 15.9918 13.2301C15.9213 13.1067 15.7272 13.0364 15.4335 12.8893C15.1397 12.7423 13.7114 12.037 13.441 11.943C13.1765 11.8431 12.9239 11.8785 12.7242 12.1606C12.442 12.5544 12.1658 12.9541 11.9424 13.195C11.7661 13.3831 11.478 13.4066 11.2371 13.3066C10.9139 13.1716 10.0089 12.8539 8.89208 11.8607C8.02807 11.0909 7.44039 10.133 7.27004 9.84507C7.09953 9.55131 7.25246 9.38063 7.38748 9.22206C7.53444 9.03977 7.67543 8.91056 7.82239 8.74005C7.96935 8.5697 8.05162 8.48146 8.14567 8.28158C8.24569 8.08768 8.17503 7.88781 8.10453 7.74085C8.03404 7.59389 7.44636 6.15979 7.20535 5.57808Z" fill="#29CC39"/>
</svg>
